<svg width="293" height="83" viewBox="0 0 293 83" fill="none" xmlns="http://www.w3.org/2000/svg">
<path fill-rule="evenodd" clip-rule="evenodd" d="M138.828 55.3122C143.848 55.3122 147.016 58.5187 147.016 63.7172V64.8345H133.514V65.4176C133.514 69.8387 136.732 75.9604 142.776 75.9604C143.799 75.9604 144.92 75.7172 145.944 75.4257L146.431 75.2801V77.5636L146.187 77.6609C145.505 77.9524 143.165 78.5353 140.29 78.5353C133.173 78.5353 129.128 74.017 129.128 66.2436C129.128 58.9074 132.296 55.3122 138.828 55.3122ZM138.243 57.9355C134.831 57.9355 133.856 60.608 133.612 62.4542H142.19C142.19 60.2679 140.972 57.9355 138.243 57.9355Z" fill="black"/>
<path fill-rule="evenodd" clip-rule="evenodd" d="M221.251 55.3122C226.271 55.3122 229.391 58.5187 229.391 63.7172V64.8345H215.938V65.4176C215.938 69.8388 219.155 75.9604 225.199 75.9604C226.223 75.9604 227.344 75.7172 228.367 75.4257L228.855 75.2801V77.5636L228.611 77.6609C227.929 77.9524 225.589 78.5353 222.713 78.5353C215.597 78.5353 211.551 74.017 211.551 66.2436C211.551 58.9075 214.719 55.3122 221.251 55.3122ZM220.666 57.9355C217.254 57.9355 216.279 60.608 216.035 62.4542H224.614C224.614 60.2679 223.395 57.9355 220.666 57.9355Z" fill="black"/>
<path fill-rule="evenodd" clip-rule="evenodd" d="M242.356 55.3122C247.346 55.3122 250.447 58.4194 250.496 63.4752V64.8345H237.043V65.4176C237.043 69.8388 240.26 75.9604 246.304 75.9604C247.328 75.9604 248.449 75.7172 249.473 75.4257L249.96 75.2801V77.5636L249.716 77.6609C249.034 77.9524 246.694 78.5353 243.818 78.5353C236.702 78.5352 232.657 74.017 232.657 66.2436C232.657 58.9075 235.825 55.3123 242.356 55.3122ZM241.772 57.9355C238.36 57.9355 237.385 60.608 237.141 62.4542H245.719C245.719 60.2679 244.501 57.9356 241.772 57.9355Z" fill="black"/>
<path d="M51.8224 45.6927C59.5237 45.6927 62.5458 49.4822 62.7895 52.9803L62.838 53.4172H57.5254L57.4764 53.0771C57.1839 51.0366 56.014 48.6077 51.7249 48.6077C44.9497 48.6077 44.1698 55.4579 44.1698 60.5592C44.1698 67.4581 46.0709 75.6686 55.0883 75.6686C56.453 75.6686 57.1355 75.5718 58.2565 75.3289V65.855C58.2565 62.4056 57.7689 62.2109 53.9183 61.5793L53.577 61.5309H53.626V60.025H63.0817V77.1262L62.7895 77.175L62.6919 76.7865L62.7409 77.175C61.3762 77.4665 57.1842 78.4869 52.9925 78.4869C48.2645 78.4869 44.6575 76.8834 42.2691 73.7742C39.9782 70.8105 38.8567 66.4863 38.8567 60.8505C38.8567 50.5022 43.0001 45.6927 51.8224 45.6927Z" fill="black"/>
<path fill-rule="evenodd" clip-rule="evenodd" d="M78.7769 55.3122C85.0159 55.3122 88.8666 59.7819 88.8666 66.9724C88.8666 74.4057 85.3084 78.4869 78.8745 78.4869C72.6842 78.4869 68.8337 74.1141 68.8337 67.0208C68.8338 59.4903 72.3429 55.3122 78.7769 55.3122ZM78.8259 57.8871C74.1954 57.8871 73.5614 62.2596 73.5613 67.0208C73.5613 69.6929 74.0976 75.9114 78.923 75.9116C83.5535 75.9116 84.1385 71.1504 84.1385 67.0208C84.1385 62.8426 83.2125 57.8873 78.8259 57.8871Z" fill="black"/>
<path d="M199.073 45.7895C202.387 45.7895 205.117 46.3239 205.994 46.5182L206.336 46.5671V50.7451L205.751 50.5022C204.727 50.0649 201.656 48.6561 198.293 48.6561C195.174 48.6561 193.126 50.3079 193.126 52.8341C193.126 55.8949 196.149 57.401 199.609 59.1501C203.704 61.1906 208.334 63.5228 208.285 69.2071C208.285 75.0371 203.947 78.4868 196.685 78.4869C193.37 78.4869 189.909 77.7094 189.227 77.5636L188.935 77.5152V73.3856L189.52 73.6769C190.495 74.1628 193.858 75.6686 197.367 75.6686C200.096 75.6686 203.411 74.7458 203.411 70.2276C203.411 66.8267 200.243 65.1747 196.831 63.4742C192.98 61.5309 188.593 59.2961 188.593 53.952C188.593 48.8507 192.542 45.7895 199.073 45.7895Z" fill="black"/>
<path d="M286.029 55.3122C288.125 55.3122 289.929 55.7492 290.904 55.9921L291.586 56.1382V59.8788L290.709 59.4419C289.783 58.9075 287.833 57.8871 285.64 57.8871C284.372 57.8871 282.228 58.1787 282.228 60.4135C282.228 62.2111 284.226 63.1342 286.517 64.203C289.588 65.6605 293.048 67.2638 293 71.4906C293 75.9603 289.831 78.4869 284.372 78.4869C281.204 78.4869 279.303 77.9037 278.279 77.5636L277.987 77.4664V73.6285L278.572 73.9198C278.621 73.9201 278.718 74.017 278.864 74.0655C279.693 74.5513 282.13 75.9116 284.567 75.9116C287.492 75.9115 288.954 74.7944 288.954 72.4139C288.954 70.4705 286.663 69.353 284.274 68.187C281.35 66.7781 278.085 65.2233 278.085 61.7254C278.085 57.5958 280.912 55.3122 286.029 55.3122Z" fill="black"/>
<path fill-rule="evenodd" clip-rule="evenodd" d="M123.717 77.9522H119.379V75.7175C118.404 76.9807 116.65 78.438 113.871 78.438C108.364 78.438 104.903 74.017 104.903 66.8751C104.903 58.3243 109.436 55.2633 113.677 55.2633C116.357 55.2634 118.258 56.5755 119.428 58.0816V51.0369C119.428 48.3162 118.794 47.6357 116.308 47.5872H115.87V46.0324L123.717 44.915V77.9522ZM114.554 57.8871C110.021 57.8871 109.68 64.7856 109.68 66.9235C109.68 68.4296 109.923 75.9115 114.359 75.9116C118.112 75.9116 119.428 71.5393 119.428 67.7984V65.9518C119.428 62.2595 118.161 57.8872 114.554 57.8871Z" fill="black"/>
<path fill-rule="evenodd" clip-rule="evenodd" d="M272.918 77.9522H268.58V75.7175C267.605 76.9807 265.85 78.438 263.072 78.438C257.613 78.438 254.103 73.9197 254.103 66.8751C254.103 58.3243 258.636 55.2633 262.877 55.2633C265.558 55.2634 267.459 56.5755 268.628 58.0816V51.0369C268.628 48.3162 267.995 47.6357 265.509 47.5872H265.07V46.0324L272.918 44.915V77.9522ZM263.754 57.8871C259.221 57.8871 258.88 64.7856 258.88 66.9235C258.88 68.4296 259.124 75.9114 263.559 75.9116C267.312 75.9116 268.628 71.5393 268.628 67.7984V65.9518C268.628 62.2595 267.361 57.8871 263.754 57.8871Z" fill="black"/>
<path d="M99.1511 78.0495H94.8133V50.2593C94.8133 48.0245 93.3508 47.7332 91.6936 47.636L91.3038 47.5872L91.2062 47.1986V46.1296L99.1511 45.0123V78.0495Z" fill="black"/>
<path d="M157.057 60.2679C158.129 58.3731 160.469 55.3123 164.466 55.3122C169.681 55.3122 170.364 58.2757 170.315 61.1907V77.9522H165.977V62.6971C165.977 59.9278 165.831 58.3245 163.15 58.3245C160.128 58.3247 157.057 63.6686 157.057 66.6322V78.0495H152.719V60.6565C152.719 58.3244 151.062 58.1785 149.697 58.0327L149.21 57.9843V56.4779L157.057 55.2633V60.2679Z" fill="black"/>
<path d="M19.8507 75.9697C22.0509 73.7782 24.7403 72.22 26.5005 72.4148C27.7715 75.5316 22.5888 83.4207 16.3794 82.9825C16.9172 82.0085 17.0638 78.7455 19.8507 75.9697Z" fill="#FDB913"/>
<path d="M11.099 61.8956C15.7927 61.8956 20.2908 63.0647 21.9043 65.11C19.9972 69.785 6.06282 72.7069 0 65.6945C1.61349 65.2075 5.23172 61.9443 11.099 61.8956Z" fill="#FDB913"/>
<path d="M0.879991 28.3426C3.22689 30.0471 11.6364 31.7515 17.797 39.9813C22.6864 46.5069 25.7179 54.1041 24.4956 58.5357C15.9391 60.5808 -2.68913 44.1695 0.879991 28.3426Z" fill="#FDB913"/>
<path d="M25.1803 0C26.5982 3.1654 34.2255 9.88581 35.5945 21.9143C36.7191 31.5079 35.3012 41.0529 31.4386 44.9001C21.4154 42.0268 12.1257 14.1225 25.1803 0Z" fill="#FDB913"/>
</svg>
